<svg id="svg" version="1.1" width="400" height="400" xmlns="http://www.w3.org/2000/svg" xmlns:xlink="http://www.w3.org/1999/xlink" style="display: block;"><g id="svgg"><path id="path0" d="M162.146 16.969 C 159.988 19.193,157.385 22.630,156.361 24.606 C 155.337 26.583,153.724 29.618,152.776 31.350 C 150.289 35.896,148.137 43.596,147.424 50.500 C 147.084 53.800,146.644 56.763,146.446 57.084 C 146.249 57.405,145.817 59.205,145.487 61.084 C 144.302 67.830,136.220 80.000,132.926 80.000 C 131.362 80.000,130.861 73.741,131.904 67.222 C 132.496 63.525,133.123 59.375,133.298 58.000 C 133.474 56.625,135.083 52.642,136.874 49.149 C 140.771 41.549,140.108 40.003,135.308 45.500 C 129.950 51.636,124.121 66.501,125.071 71.607 C 127.267 83.418,122.725 90.461,115.441 86.538 C 109.381 83.274,106.286 66.890,109.960 57.515 C 112.172 51.868,114.338 47.497,115.748 45.832 C 119.116 41.857,116.731 39.208,113.145 42.942 C 103.011 53.493,98.869 73.688,104.428 85.440 C 109.732 96.651,104.187 102.965,96.254 94.750 C 87.018 85.188,85.246 74.000,91.031 61.774 C 95.325 52.697,94.591 49.598,89.723 56.250 C 80.206 69.255,79.574 81.746,87.848 93.339 C 94.827 103.119,87.487 98.774,79.858 88.610 C 66.173 70.377,64.876 64.611,71.500 51.448 C 73.700 47.077,75.650 43.163,75.833 42.750 C 76.017 42.337,75.395 42.000,74.451 42.000 C 70.660 42.000,63.540 52.273,59.897 63.000 C 59.210 65.021,59.112 64.734,59.383 61.500 C 59.763 56.974,61.978 51.244,64.973 47.038 C 69.500 40.681,66.686 39.079,60.993 44.772 C 48.104 57.660,51.276 75.067,69.893 93.624 C 75.187 98.901,75.893 102.000,71.799 102.000 C 70.704 102.000,69.595 102.834,69.326 103.860 C 68.751 106.062,64.670 105.915,60.049 103.525 C 57.867 102.397,55.275 102.158,49.814 102.582 C 42.972 103.113,23.771 101.162,19.827 99.535 C 16.831 98.299,14.000 102.352,14.000 107.878 C 14.000 110.993,13.458 113.205,12.500 114.000 C 8.257 117.521,12.369 124.436,20.500 127.452 C 24.845 129.064,27.142 130.618,28.829 133.089 C 30.110 134.965,31.708 136.388,32.379 136.252 C 33.731 135.978,36.000 141.384,36.000 144.880 C 36.000 146.128,36.446 146.843,37.007 146.496 C 37.561 146.153,38.273 146.548,38.590 147.373 C 38.906 148.199,39.770 148.642,40.510 148.358 C 41.477 147.987,41.692 148.461,41.277 150.047 C 40.896 151.507,41.259 152.565,42.350 153.176 C 43.258 153.684,44.006 154.865,44.012 155.800 C 44.019 156.735,45.594 158.517,47.512 159.759 C 49.489 161.040,51.000 162.845,51.000 163.927 C 51.000 166.748,52.083 169.067,53.105 168.435 C 53.597 168.131,54.000 168.584,54.000 169.441 C 54.000 170.298,54.567 171.000,55.259 171.000 C 55.952 171.000,57.081 171.900,57.768 173.000 C 58.455 174.100,59.688 175.000,60.508 175.000 C 61.509 175.000,62.000 176.018,62.000 178.094 C 62.000 180.340,62.544 181.330,63.988 181.707 C 65.513 182.106,65.921 182.959,65.738 185.364 C 65.548 187.865,65.854 188.441,67.250 188.206 C 68.442 188.006,69.000 188.564,69.000 189.956 C 69.000 191.106,69.656 192.000,70.500 192.000 C 71.325 192.000,72.000 192.675,72.000 193.500 C 72.000 194.325,72.450 195.000,73.000 195.000 C 73.550 195.000,74.000 195.900,74.000 197.000 C 74.000 198.100,74.406 199.000,74.902 199.000 C 75.398 199.000,76.287 200.384,76.876 202.075 C 77.497 203.856,78.402 204.870,79.026 204.484 C 79.648 204.100,80.602 205.135,81.279 206.929 C 81.964 208.742,82.980 209.838,83.717 209.555 C 84.443 209.277,85.236 210.090,85.582 211.469 C 85.965 212.996,86.695 213.671,87.592 213.326 C 88.443 213.000,89.000 213.422,89.000 214.393 C 89.000 216.268,90.961 216.604,91.081 214.750 C 91.126 214.063,91.781 214.850,92.536 216.500 C 93.292 218.150,93.949 218.825,93.997 218.000 C 94.045 217.175,94.946 218.075,96.000 220.000 C 97.054 221.925,97.949 223.050,97.990 222.500 C 98.030 221.950,98.694 222.333,99.465 223.350 C 100.236 224.368,101.316 224.923,101.864 224.584 C 102.413 224.245,103.149 224.432,103.500 225.000 C 103.851 225.568,104.526 225.793,105.000 225.500 C 105.474 225.207,106.144 225.425,106.490 225.984 C 107.497 227.613,109.273 227.154,108.613 225.435 C 108.152 224.233,108.476 224.016,110.006 224.502 C 111.304 224.914,112.011 224.675,112.030 223.817 C 112.051 222.909,112.349 222.993,112.989 224.086 C 113.547 225.041,115.422 225.729,117.699 225.815 C 125.040 226.091,136.418 232.883,139.630 238.906 C 142.955 245.142,148.855 251.831,153.357 254.469 C 157.102 256.664,157.848 257.645,158.401 261.109 C 160.023 271.249,160.052 278.037,158.513 287.500 C 156.343 300.852,156.213 303.642,157.494 309.349 C 158.119 312.131,158.292 316.821,157.900 320.349 C 155.195 344.714,152.944 350.202,142.389 358.171 C 135.088 363.684,135.241 366.033,143.000 367.513 C 150.632 368.968,153.913 368.314,155.844 364.950 C 156.724 363.417,158.790 361.776,160.436 361.304 C 164.052 360.267,165.050 356.898,166.450 341.000 C 166.765 337.425,167.306 331.350,167.652 327.500 C 167.999 323.650,168.241 319.639,168.191 318.586 C 168.141 317.533,169.042 314.608,170.194 312.086 C 171.345 309.564,172.859 305.250,173.557 302.500 C 174.255 299.750,176.597 292.550,178.760 286.500 C 180.924 280.450,182.715 275.153,182.740 274.730 C 182.765 274.306,183.109 272.281,183.505 270.230 C 185.371 260.571,186.650 275.755,185.626 295.397 C 185.004 307.323,186.317 310.695,194.491 318.166 C 197.392 320.817,203.081 327.531,207.133 333.084 C 213.814 342.242,235.953 366.000,237.806 366.000 C 239.416 366.000,242.269 359.559,242.702 354.946 C 243.146 350.216,243.075 350.073,239.077 347.549 C 236.568 345.965,235.000 344.221,235.000 343.013 C 235.000 341.810,233.744 340.404,231.750 339.378 C 222.394 334.561,206.205 317.739,202.230 308.703 C 200.477 304.716,200.707 300.625,202.899 296.807 C 203.943 294.988,205.790 290.575,207.002 287.000 C 208.215 283.425,209.576 279.600,210.027 278.500 C 210.478 277.400,211.579 273.800,212.474 270.500 C 216.199 256.754,218.221 250.857,219.327 250.505 C 219.972 250.300,223.875 249.905,228.000 249.627 C 235.775 249.103,236.812 248.936,243.543 247.123 C 247.910 245.947,254.281 246.698,264.000 249.534 C 273.179 252.212,276.307 252.954,280.908 253.546 C 283.332 253.857,286.704 254.830,288.401 255.707 C 290.155 256.614,293.898 257.299,297.073 257.294 L 302.659 257.285 304.435 264.893 C 305.412 269.077,306.402 273.625,306.636 275.000 C 306.870 276.375,308.171 280.763,309.528 284.752 C 313.526 296.502,312.750 308.043,307.289 318.052 C 296.273 338.246,274.800 366.659,269.216 368.431 C 266.176 369.396,263.573 373.780,265.010 375.513 C 268.827 380.111,280.678 379.734,283.160 374.935 C 285.588 370.240,290.549 365.566,293.143 365.529 C 294.708 365.507,296.254 363.519,299.458 357.407 C 301.791 352.955,305.905 345.980,308.599 341.907 C 311.294 337.833,313.675 334.050,313.892 333.500 C 314.641 331.594,326.309 314.479,329.913 310.000 C 337.081 301.089,337.996 298.408,336.401 291.000 C 334.066 280.152,333.109 272.104,333.712 268.387 L 334.285 264.857 349.113 279.646 C 368.223 298.705,373.119 307.252,375.602 325.887 C 375.850 327.750,376.476 331.161,376.993 333.467 C 381.057 351.605,378.432 361.997,367.064 372.775 C 360.548 378.951,361.105 380.369,370.504 381.544 C 377.353 382.400,379.674 381.578,381.778 377.554 C 386.733 368.077,388.294 365.839,390.541 364.984 C 393.986 363.675,393.671 354.223,389.390 330.500 C 388.174 323.759,387.793 317.667,387.546 301.000 L 387.286 283.500 380.504 276.000 C 369.074 263.361,365.760 252.410,369.381 239.250 C 369.721 238.013,370.185 236.173,370.411 235.161 C 370.638 234.150,371.292 231.563,371.866 229.411 C 372.800 225.909,374.177 220.326,374.434 219.000 C 374.487 218.725,374.895 217.926,375.340 217.224 C 375.785 216.523,376.407 213.453,376.722 210.403 C 377.097 206.771,377.594 205.314,378.162 206.179 C 379.920 208.855,384.985 201.606,385.111 196.234 C 385.396 184.039,383.661 180.282,375.667 175.783 C 372.458 173.977,367.508 170.991,364.667 169.146 C 358.726 165.289,352.503 162.000,351.148 162.000 C 350.635 162.000,346.652 159.996,342.296 157.546 C 332.982 152.308,327.849 150.985,316.526 150.902 C 311.936 150.868,302.627 149.950,295.840 148.862 C 289.053 147.774,282.150 146.697,280.500 146.470 C 278.850 146.243,269.175 145.867,259.000 145.634 C 245.731 145.330,238.879 144.738,234.769 143.540 C 231.617 142.621,228.692 141.808,228.269 141.732 C 227.846 141.657,224.516 140.143,220.868 138.368 C 205.608 130.941,186.230 129.628,166.500 134.684 C 163.200 135.529,159.098 136.347,157.385 136.501 C 155.671 136.656,152.902 137.082,151.230 137.449 C 149.558 137.817,147.925 137.688,147.601 137.163 C 147.257 136.607,145.579 136.531,143.584 136.981 C 140.970 137.571,140.274 137.449,140.651 136.467 C 140.922 135.760,140.325 134.961,139.322 134.693 C 137.633 134.241,128.500 134.456,128.500 134.948 C 128.500 135.936,123.697 135.375,123.300 134.340 C 122.995 133.544,121.237 133.000,118.973 133.000 C 114.869 133.000,101.000 126.626,101.000 124.741 C 101.000 124.155,102.305 121.611,103.899 119.088 C 105.493 116.564,107.104 113.038,107.478 111.250 C 108.110 108.236,108.450 108.000,112.176 108.000 C 118.445 108.000,126.057 105.356,136.900 99.410 C 152.149 91.048,151.372 91.155,161.459 96.037 C 172.164 101.219,180.156 107.161,187.576 115.458 C 192.830 121.332,195.960 123.759,206.118 129.836 C 208.108 131.026,210.808 131.988,212.118 131.973 C 214.770 131.943,215.477 132.699,200.994 120.077 C 197.572 117.095,192.873 112.045,190.552 108.856 C 188.231 105.666,184.008 101.206,181.166 98.943 C 175.685 94.579,174.615 91.528,177.538 88.605 C 180.025 86.118,191.706 92.670,198.298 100.249 C 203.567 106.307,222.637 120.342,224.247 119.347 C 224.737 119.044,221.601 115.355,217.277 111.148 C 208.456 102.567,197.000 87.777,197.000 84.971 C 197.000 83.958,199.692 79.387,202.982 74.814 C 206.273 70.241,208.973 65.938,208.982 65.250 C 208.992 64.563,209.348 64.000,209.773 64.000 C 210.546 64.000,213.307 59.046,214.372 55.750 C 215.989 50.744,208.263 57.834,199.794 69.128 C 192.518 78.831,184.333 81.004,188.145 72.221 C 190.137 67.630,192.707 59.066,193.611 54.000 C 193.857 52.625,194.256 50.938,194.498 50.250 C 196.242 45.290,189.811 52.116,187.196 58.000 C 186.096 60.475,184.052 65.088,182.653 68.250 C 175.142 85.237,172.913 65.712,179.829 43.500 C 182.535 34.808,183.781 25.073,182.461 22.937 C 181.549 21.461,179.000 23.781,179.000 26.089 C 179.000 27.960,178.452 29.362,173.150 41.067 C 170.317 47.322,168.304 53.535,167.342 59.000 C 166.222 65.363,157.303 78.000,153.933 78.000 C 151.551 78.000,151.454 75.728,153.432 66.315 C 154.220 62.567,155.120 56.805,155.432 53.511 C 156.451 42.749,159.860 29.974,163.574 23.000 C 169.019 12.778,168.469 10.454,162.146 16.969 M172.000 85.617 C 172.000 85.827,170.537 85.993,168.750 85.985 C 166.540 85.974,165.936 85.693,166.861 85.107 C 168.102 84.321,172.000 84.707,172.000 85.617 M96.000 109.812 C 94.075 110.806,92.102 111.417,91.615 111.168 C 90.398 110.546,95.036 108.079,97.500 108.037 C 98.919 108.013,98.483 108.529,96.000 109.812 M184.947 265.356 C 183.984 266.244,183.851 266.089,184.353 264.668 C 184.709 263.661,185.052 262.311,185.116 261.668 C 185.180 261.026,185.447 261.335,185.710 262.356 C 185.973 263.377,185.629 264.727,184.947 265.356 " stroke="none" fill="#022547" fill-rule="evenodd"></path></g></svg>